<svg width="46" height="45" viewBox="0 0 46 45" fill="none" xmlns="http://www.w3.org/2000/svg">
<path d="M12.5 36C11.675 36 10.9685 35.7065 10.3805 35.1195C9.7935 34.5315 9.5 33.825 9.5 33V12C9.5 11.175 9.7935 10.4685 10.3805 9.8805C10.9685 9.2935 11.675 9 12.5 9H33.5C34.325 9 35.0315 9.2935 35.6195 9.8805C36.2065 10.4685 36.5 11.175 36.5 12V33C36.5 33.825 36.2065 34.5315 35.6195 35.1195C35.0315 35.7065 34.325 36 33.5 36H12.5ZM17 30C17.425 30 17.7815 29.856 18.0695 29.568C18.3565 29.281 18.5 28.925 18.5 28.5C18.5 28.075 18.3565 27.7185 18.0695 27.4305C17.7815 27.1435 17.425 27 17 27C16.575 27 16.2185 27.1435 15.9305 27.4305C15.6435 27.7185 15.5 28.075 15.5 28.5C15.5 28.925 15.6435 29.281 15.9305 29.568C16.2185 29.856 16.575 30 17 30ZM17 24C17.425 24 17.7815 23.856 18.0695 23.568C18.3565 23.281 18.5 22.925 18.5 22.5C18.5 22.075 18.3565 21.7185 18.0695 21.4305C17.7815 21.1435 17.425 21 17 21C16.575 21 16.2185 21.1435 15.9305 21.4305C15.6435 21.7185 15.5 22.075 15.5 22.5C15.5 22.925 15.6435 23.281 15.9305 23.568C16.2185 23.856 16.575 24 17 24ZM17 18C17.425 18 17.7815 17.856 18.0695 17.568C18.3565 17.281 18.5 16.925 18.5 16.5C18.5 16.075 18.3565 15.7185 18.0695 15.4305C17.7815 15.1435 17.425 15 17 15C16.575 15 16.2185 15.1435 15.9305 15.4305C15.6435 15.7185 15.5 16.075 15.5 16.5C15.5 16.925 15.6435 17.281 15.9305 17.568C16.2185 17.856 16.575 18 17 18ZM23 30H29C29.425 30 29.781 29.856 30.068 29.568C30.356 29.281 30.5 28.925 30.5 28.5C30.5 28.075 30.356 27.7185 30.068 27.4305C29.781 27.1435 29.425 27 29 27H23C22.575 27 22.219 27.1435 21.932 27.4305C21.644 27.7185 21.5 28.075 21.5 28.5C21.5 28.925 21.644 29.281 21.932 29.568C22.219 29.856 22.575 30 23 30ZM23 24H29C29.425 24 29.781 23.856 30.068 23.568C30.356 23.281 30.5 22.925 30.5 22.5C30.5 22.075 30.356 21.7185 30.068 21.4305C29.781 21.1435 29.425 21 29 21H23C22.575 21 22.219 21.1435 21.932 21.4305C21.644 21.7185 21.5 22.075 21.5 22.5C21.5 22.925 21.644 23.281 21.932 23.568C22.219 23.856 22.575 24 23 24ZM23 18H29C29.425 18 29.781 17.856 30.068 17.568C30.356 17.281 30.5 16.925 30.5 16.5C30.5 16.075 30.356 15.7185 30.068 15.4305C29.781 15.1435 29.425 15 29 15H23C22.575 15 22.219 15.1435 21.932 15.4305C21.644 15.7185 21.5 16.075 21.5 16.5C21.5 16.925 21.644 17.281 21.932 17.568C22.219 17.856 22.575 18 23 18Z" fill="#666666"/>
</svg>
